<?xml version="1.0" standalone="no"?>
<!DOCTYPE svg PUBLIC "-//W3C//DTD SVG 20010904//EN" "http://www.w3.org/TR/2001/REC-SVG-20010904/DTD/svg10.dtd">
<svg version="1.0" xmlns="http://www.w3.org/2000/svg" width="282.000000pt" height="282.000000pt" viewBox="0 0 282.000000 282.000000" preserveAspectRatio="xMidYMid meet">

  <g transform="translate(0.000000,282.000000) scale(0.100000,-0.100000)" fill="#000000" stroke="none">
    <path
      d="M1185 2735 c-93 -15 -279 -72 -350 -107 -89 -44 -165 -93 -165 -106
0 -14 49 -102 57 -102 2 0 36 18 74 41 174 101 344 148 564 156 127 5 167 2
263 -16 254 -49 448 -152 640 -341 165 -163 281 -385 328 -628 25 -129 24
-350 -3 -472 -55 -249 -163 -444 -340 -615 l-82 -80 27 -50 c15 -27 33 -50 40
-50 19 0 136 109 200 188 152 186 249 392 293 627 17 85 16 344 0 445 -51 309
-214 601 -450 802 -175 149 -361 243 -581 294 -115 27 -388 34 -515 14z"/>
    <path
      d="M521 2420 c-411 -354 -564 -929 -386 -1452 66 -194 188 -381 348
-535 389 -373 985 -473 1477 -247 74 34 210 112 210 120 0 16 -53 104 -62 104
-6 0 -32 -13 -57 -30 -110 -70 -320 -150 -446 -171 -114 -18 -321 -16 -430 5
-292 56 -584 244 -758 489 -237 332 -292 777 -142 1151 74 184 183 337 338
473 l48 41 -25 51 c-14 27 -30 52 -35 56 -6 3 -42 -22 -80 -55z"/>
    <path fill="#86cd25"
      d="M1015 2344 c-10 -33 -32 -115 -51 -183 l-33 -123 31 -57 c17 -31 78
-144 135 -251 58 -107 144 -267 191 -355 47 -88 98 -182 113 -210 99 -185 322
-602 355 -662 21 -40 42 -73 45 -73 4 0 11 19 17 43 7 23 27 100 47 171 19 72
35 136 35 144 0 8 -29 67 -64 131 -35 64 -79 145 -99 181 -136 253 -627 1162
-673 1244 l-32 58 -17 -58z"/>
    <path d="M1364 1977 c-2 -7 31 -78 75 -158 l79 -144 154 -5 155 -5 -50 -185
-49 -185 43 -85 c71 -138 160 -290 170 -290 5 0 9 6 9 14 0 7 36 146 81 307
161 586 199 731 193 740 -3 5 -192 9 -430 9 -339 0 -426 -3 -430 -13z"/>
    <path d="M890 1914 c0 -9 -176 -662 -200 -744 -27 -89 -110 -396 -110 -404 0
-3 212 -6 471 -6 l471 0 -68 128 c-37 70 -76 139 -86 155 l-19 27 -183 0 -183
0 34 133 c19 72 47 178 62 234 l28 103 -101 190 c-87 164 -116 211 -116 184z"/>
  </g>
</svg>
